# xmcd
#
# Track frame offsets: 
#        150
#        19132
#        34675
#        51915
#        65512
#        93184
#        104248
#        123709
#        149140
#        167773
#        186010
#        199555
#
# Disc length: 2994 seconds
#
# Revision: 0
# Processed by: cddbd v1.5.2PL0 Copyright (c) Steve Scherf et al.
# Submitted via: ExactAudioCopy v0.99pb5
#
DISCID=b20bb00c
DTITLE=Hollywood All Stars - Hard Hitting Blues From Memphis
DYEAR=2000
DGENRE=Blues
TTITLE0=Making A Change
TTITLE1=I'm Tore Down
TTITLE2=What Did I Do
TTITLE3=Mannish Boy
TTITLE4=Big Leg Woman
TTITLE5=Going 'Cross The Bottom
TTITLE6=It's Too Bad
TTITLE7=Better to Take Than To Give
TTITLE8=Ben Wilson Shuffle
TTITLE9=Let Me Play With Your Poodle
TTITLE10=That's My Woman
TTITLE11=Gambler's Blues
EXTD=
EXTT0=
EXTT1=
EXTT2=
EXTT3=
EXTT4=
EXTT5=
EXTT6=
EXTT7=
EXTT8=
EXTT9=
EXTT10=
EXTT11=
PLAYORDER=
